<?xml version="1.0" encoding="utf-8"?><!DOCTYPE svg  PUBLIC '-//W3C//DTD SVG 1.1//EN'  'http://www.w3.org/Graphics/SVG/1.1/DTD/svg11.dtd'><svg viewBox="0 0 512 512" xmlns="http://www.w3.org/2000/svg" xmlns:xlink="http://www.w3.org/1999/xlink"><style>:root>svg{display:none}:root>svg:target{display:block}</style><svg fill="none" viewBox="0 0 74 74" id="about-vector" xmlns="http://www.w3.org/2000/svg"><path d="M58.573 6.938a1.233 1.233 0 00-1.44 2.003c9.017 6.48 14.4 16.969 14.4 28.057 0 19.038-15.49 34.528-34.53 34.528-19.039 0-34.529-15.49-34.529-34.528 0-19.04 15.49-34.528 34.53-34.528A34.23 34.23 0 0151.64 5.716a1.233 1.233 0 101.047-2.234C39.237-2.82 22.335-.686 10.815 10.864c-14.418 14.456-14.431 37.833.029 52.292 14.457 14.458 37.883 14.467 52.341-.023 16.228-16.264 13.791-42.967-4.612-56.195z" fill="url(#apaint0_linear_12_88)"/><path d="M45.015 13.502c-16.533-5.62-33.614 7.15-32.802 24.66a1.232 1.232 0 102.463-.114c-.74-15.989 14.858-27.204 29.544-22.211a22.35 22.35 0 0115.135 21.16c0 12.325-10.027 22.351-22.351 22.351-8.602 0-16.538-5.028-20.217-12.81a1.234 1.234 0 00-2.23 1.055 24.807 24.807 0 0022.447 14.221c13.684 0 24.817-11.133 24.817-24.817a24.815 24.815 0 00-16.806-23.495z" fill="url(#apaint1_linear_12_88)"/><path d="M12.655 54.139a1.233 1.233 0 00-.226 1.73c.357.463.732.924 1.115 1.367a1.233 1.233 0 101.867-1.611 28.973 28.973 0 01-1.027-1.26 1.233 1.233 0 00-1.73-.226z" fill="url(#apaint2_linear_12_88)"/><path d="M60.372 19.817c1.016 0 1.61-1.183.968-1.997-.363-.46-.744-.915-1.132-1.354A1.233 1.233 0 1058.36 18.1c.358.405.709.825 1.042 1.248.244.308.605.47.97.47z" fill="url(#apaint3_linear_12_88)"/><path d="M24.205 62.489a1.233 1.233 0 10-1.108 2.203c.522.263 1.06.514 1.597.747a1.233 1.233 0 00.98-2.264 28.506 28.506 0 01-1.469-.686z" fill="url(#apaint4_linear_12_88)"/><path d="M36.58 65.51a1.232 1.232 0 10-.037 2.467c.607.009 1.198 0 1.764-.023a1.233 1.233 0 10-.101-2.464c-.538.022-1.082.03-1.626.02z" fill="url(#apaint5_linear_12_88)"/><path d="M60.093 53.739c-.317.435-.65.868-.992 1.286a1.233 1.233 0 101.91 1.56c.371-.454.733-.924 1.077-1.397a1.233 1.233 0 10-1.995-1.45z" fill="url(#apaint6_linear_12_88)"/><path d="M65.08 42.016a28.58 28.58 0 01-.33 1.59 1.233 1.233 0 002.4.57c.135-.57.256-1.151.358-1.729a1.233 1.233 0 10-2.428-.43z" fill="url(#apaint7_linear_12_88)"/><path d="M50.495 62.126c-.476.257-.965.502-1.453.73a1.233 1.233 0 001.042 2.235c.531-.248 1.063-.514 1.58-.793a1.233 1.233 0 00-1.169-2.172z" fill="url(#apaint8_linear_12_88)"/><path d="M7.782 32.63c.58 0 1.097-.412 1.21-1.003.1-.53.218-1.064.35-1.586a1.233 1.233 0 00-2.393-.6c-.142.568-.27 1.148-.38 1.724a1.234 1.234 0 001.213 1.465z" fill="url(#apaint9_linear_12_88)"/><path d="M7.063 45a1.233 1.233 0 002.383-.636 28.326 28.326 0 01-.374-1.58 1.233 1.233 0 10-2.415.498c.119.575.255 1.153.406 1.718z" fill="url(#apaint10_linear_12_88)"/><path d="M66.841 28.62a1.233 1.233 0 10-2.374.666c.145.519.278 1.049.393 1.575a1.233 1.233 0 102.41-.528 30.948 30.948 0 00-.429-1.713z" fill="url(#apaint11_linear_12_88)"/><path d="M49.481 11.348a1.233 1.233 0 001.08-2.218c-.525-.256-1.066-.5-1.605-.726a1.233 1.233 0 10-.952 2.275c.497.208.994.433 1.477.668z" fill="url(#apaint12_linear_12_88)"/><path d="M23.259 11.841c.474 0 .495-.158 2.032-.851a1.233 1.233 0 00-1.014-2.248c-.535.24-1.07.5-1.59.772a1.233 1.233 0 00.572 2.327z" fill="url(#apaint13_linear_12_88)"/><path d="M12.4 20.219c.548.408 1.32.293 1.726-.251.323-.432.662-.861 1.008-1.274a1.233 1.233 0 00-1.89-1.584 31.21 31.21 0 00-1.095 1.383 1.233 1.233 0 00.252 1.726z" fill="url(#apaint14_linear_12_88)"/><path d="M36.16 8.492a28.898 28.898 0 011.626 0 1.233 1.233 0 10.068-2.465c-.591-.017-1.182-.017-1.765 0a1.233 1.233 0 10.07 2.465z" fill="url(#apaint15_linear_12_88)"/><path d="M41.096 25.132a1.233 1.233 0 00-1.178-1.286l-16.3-.72a1.234 1.234 0 00-1.218 1.638c.04.117 11.238 30.482 11.394 30.906a1.234 1.234 0 002.061.412l20.088-21.659a1.233 1.233 0 00-.037-1.715c-8.908-8.798-8.362-8.298-8.615-8.426a1.236 1.236 0 00-1.346.152c-.146.121.387-.537-8.148 10.323L27.123 25.75l12.685.56a1.233 1.233 0 001.287-1.178zm-4.448 11.883l-1.259 7.791a1.233 1.233 0 102.435.394l1.23-7.612 9.24-1.59a1.233 1.233 0 10-.418-2.431l-6.948 1.196 5.922-7.534 6.472 6.393-17.909 19.31-9.078-24.621 10.313 8.704z" fill="url(#apaint16_linear_12_88)"/><defs><linearGradient id="apaint0_linear_12_88" x1="17.435" y1="0" x2="79.903" y2="17.391" gradientUnits="userSpaceOnUse"><stop stop-color="#E2F685"/><stop offset="1" stop-color="#8AF9AD"/></linearGradient><linearGradient id="apaint1_linear_12_88" x1="17.435" y1="0" x2="79.903" y2="17.391" gradientUnits="userSpaceOnUse"><stop stop-color="#E2F685"/><stop offset="1" stop-color="#8AF9AD"/></linearGradient><linearGradient id="apaint2_linear_12_88" x1="17.435" y1="0" x2="79.903" y2="17.391" gradientUnits="userSpaceOnUse"><stop stop-color="#E2F685"/><stop offset="1" stop-color="#8AF9AD"/></linearGradient><linearGradient id="apaint3_linear_12_88" x1="17.435" y1="0" x2="79.903" y2="17.391" gradientUnits="userSpaceOnUse"><stop stop-color="#E2F685"/><stop offset="1" stop-color="#8AF9AD"/></linearGradient><linearGradient id="apaint4_linear_12_88" x1="17.435" y1="0" x2="79.903" y2="17.391" gradientUnits="userSpaceOnUse"><stop stop-color="#E2F685"/><stop offset="1" stop-color="#8AF9AD"/></linearGradient><linearGradient id="apaint5_linear_12_88" x1="17.435" y1="0" x2="79.903" y2="17.391" gradientUnits="userSpaceOnUse"><stop stop-color="#E2F685"/><stop offset="1" stop-color="#8AF9AD"/></linearGradient><linearGradient id="apaint6_linear_12_88" x1="17.435" y1="0" x2="79.903" y2="17.391" gradientUnits="userSpaceOnUse"><stop stop-color="#E2F685"/><stop offset="1" stop-color="#8AF9AD"/></linearGradient><linearGradient id="apaint7_linear_12_88" x1="17.435" y1="0" x2="79.903" y2="17.391" gradientUnits="userSpaceOnUse"><stop stop-color="#E2F685"/><stop offset="1" stop-color="#8AF9AD"/></linearGradient><linearGradient id="apaint8_linear_12_88" x1="17.435" y1="0" x2="79.903" y2="17.391" gradientUnits="userSpaceOnUse"><stop stop-color="#E2F685"/><stop offset="1" stop-color="#8AF9AD"/></linearGradient><linearGradient id="apaint9_linear_12_88" x1="17.435" y1="0" x2="79.903" y2="17.391" gradientUnits="userSpaceOnUse"><stop stop-color="#E2F685"/><stop offset="1" stop-color="#8AF9AD"/></linearGradient><linearGradient id="apaint10_linear_12_88" x1="17.435" y1="0" x2="79.903" y2="17.391" gradientUnits="userSpaceOnUse"><stop stop-color="#E2F685"/><stop offset="1" stop-color="#8AF9AD"/></linearGradient><linearGradient id="apaint11_linear_12_88" x1="17.435" y1="0" x2="79.903" y2="17.391" gradientUnits="userSpaceOnUse"><stop stop-color="#E2F685"/><stop offset="1" stop-color="#8AF9AD"/></linearGradient><linearGradient id="apaint12_linear_12_88" x1="17.435" y1="0" x2="79.903" y2="17.391" gradientUnits="userSpaceOnUse"><stop stop-color="#E2F685"/><stop offset="1" stop-color="#8AF9AD"/></linearGradient><linearGradient id="apaint13_linear_12_88" x1="17.435" y1="0" x2="79.903" y2="17.391" gradientUnits="userSpaceOnUse"><stop stop-color="#E2F685"/><stop offset="1" stop-color="#8AF9AD"/></linearGradient><linearGradient id="apaint14_linear_12_88" x1="17.435" y1="0" x2="79.903" y2="17.391" gradientUnits="userSpaceOnUse"><stop stop-color="#E2F685"/><stop offset="1" stop-color="#8AF9AD"/></linearGradient><linearGradient id="apaint15_linear_12_88" x1="17.435" y1="0" x2="79.903" y2="17.391" gradientUnits="userSpaceOnUse"><stop stop-color="#E2F685"/><stop offset="1" stop-color="#8AF9AD"/></linearGradient><linearGradient id="apaint16_linear_12_88" x1="17.435" y1="0" x2="79.903" y2="17.391" gradientUnits="userSpaceOnUse"><stop stop-color="#E2F685"/><stop offset="1" stop-color="#8AF9AD"/></linearGradient></defs></svg><svg viewBox="0 0 32 31" id="card-1" xmlns="http://www.w3.org/2000/svg"><path d="M15.397 15.561l-2.383 14.524c-.127.768.836 1.231 1.374.66l15.825-16.802c.52-.552.032-1.439-.722-1.31l-13.44 2.278a.793.793 0 00-.654.65zM14.37 10.752l6.929-8.681c.402-.504.057-1.244-.593-1.273L2.372.001c-.762-.033-1.133.903-.55 1.387l11.405 9.48a.807.807 0 001.143-.116zM31.762 7.79l-5.535-5.383a.807.807 0 00-1.19.073l-5.836 7.312c-.452.567.043 1.384.764 1.262l11.37-1.928a.783.783 0 00.427-1.335zM.053 5.962l8.46 22.594c.284.76 1.407.652 1.538-.147l2.248-13.695a.78.78 0 00-.274-.727L1.318 5.088c-.627-.52-1.549.116-1.265.874z"/></svg><svg viewBox="0 0 33 37" id="card-2" xmlns="http://www.w3.org/2000/svg"><path d="M31.931 14.89l-6.736 4.443a8.654 8.654 0 01-.206 3.639l6.592 4.348c1.756-3.9 1.893-8.4.35-12.43zM24.543 17.147l6.46-4.26a16.468 16.468 0 00-5.966-6.183l-4.282 6.354a8.799 8.799 0 013.788 4.089zM16.5 14.147c-3.64 0-6.6 2.929-6.6 6.53 0 3.6 2.96 6.529 6.6 6.529 3.64 0 6.6-2.93 6.6-6.53s-2.96-6.53-6.6-6.53zm0 10.882c-2.426 0-4.4-1.953-4.4-4.353 0-2.4 1.974-4.353 4.4-4.353s4.4 1.953 4.4 4.353c0 2.4-1.974 4.353-4.4 4.353zM20.208 28.57l4.302 6.384a16.592 16.592 0 006.035-5.702l-6.42-4.234a8.824 8.824 0 01-3.917 3.552z"/><path d="M16.5 22.853c1.215 0 2.2-.975 2.2-2.177a2.188 2.188 0 00-2.2-2.176c-1.215 0-2.2.974-2.2 2.176 0 1.202.985 2.177 2.2 2.177zM14.977 29.251l-4.475 6.64a16.781 16.781 0 0011.996 0l-4.475-6.64a8.928 8.928 0 01-3.046 0zM18.665 12.237l4.406-6.539a16.527 16.527 0 00-2.941-.948c-1.045 2.086-2.563 4.036-3.63 5.609-1.063-1.57-2.582-3.517-3.63-5.609a16.543 16.543 0 00-2.941.948l4.406 6.54a8.913 8.913 0 014.33 0zM8.875 25.018l-6.42 4.234a16.595 16.595 0 006.035 5.702l4.302-6.384a8.823 8.823 0 01-3.917-3.552zM7.805 19.333L1.07 14.89a16.226 16.226 0 00.35 12.43l6.592-4.348a8.632 8.632 0 01-.206-3.64zM12.245 13.058L7.963 6.704a16.469 16.469 0 00-5.965 6.183l6.459 4.26a8.798 8.798 0 013.788-4.089z"/><path d="M18.7 2.176C18.7.974 17.715 0 16.5 0c-1.215 0-2.2.974-2.2 2.176 0 1.202 2.2 4.353 2.2 4.353s2.2-3.15 2.2-4.353z"/></svg><svg viewBox="0 0 34 34" id="card-3" xmlns="http://www.w3.org/2000/svg"><path d="M.463 17.044a.708.708 0 00-.42.907l.445 1.224 3.387-3.388-3.412 1.257zM3.67 27.924l2.04 5.61a.702.702 0 00.665.466.693.693 0 00.245-.044l2.251-.83-5.202-5.202zM33.957 23.134l-2.335-6.419-5.603 5.603 2.777-1.023a.705.705 0 01.91.42.707.707 0 01-.42.91l-3.527 1.3a.706.706 0 01-.91-.42l-.001-.012-5.937 5.937 14.625-5.39a.706.706 0 00.42-.906zM33.792 11.54L22.46.207a.709.709 0 00-1.001 0L.208 21.457a.709.709 0 000 1.002l11.333 11.333a.711.711 0 001.002.001l21.25-21.25a.71.71 0 000-1.003zM8.293 19.627L5.46 22.46a.712.712 0 01-1.003 0 .709.709 0 010-1.002l2.833-2.833a.709.709 0 011.003 1.002zm12.233.9c-.502.5-1.183.741-1.941.741-1.253 0-2.716-.655-3.94-1.88-.895-.896-1.524-1.967-1.77-3.015-.271-1.17-.047-2.186.631-2.866.679-.68 1.696-.904 2.866-.63 1.048.244 2.12.872 3.015 1.769 1.967 1.966 2.469 4.55 1.139 5.88zm9.016-7.984l-2.833 2.834a.712.712 0 01-1.003 0 .709.709 0 010-1.002l2.833-2.833a.709.709 0 011.003 1.001z"/></svg><svg viewBox="0 0 35 35" id="card-4" xmlns="http://www.w3.org/2000/svg"><path d="M22.31 19.302c1.113-.718 1.604-2.245 1.808-3.196-1.034-.22-2.599-.345-3.653.335-1.113.718-1.604 2.245-1.808 3.196 1.034.22 2.599.346 3.653-.335z"/><path d="M17.5 6.152c-6.257 0-11.348 5.09-11.348 11.348 0 5.912 4.544 10.78 10.323 11.3v-7.1c-.229.043-.477.081-.74.11a8.787 8.787 0 01-.969.056c-1.239 0-2.328-.286-3.188-.84-1.079-.697-1.918-1.895-2.429-3.465a10.042 10.042 0 01-.446-2.12l-.06-.776.732-.266c.038-.013.934-.335 2.115-.466 1.641-.183 3.079.09 4.157.785.74.477 1.367 1.19 1.853 2.098.486-.907 1.113-1.62 1.853-2.098 1.078-.696 2.516-.968 4.157-.785a10.04 10.04 0 012.115.466l.732.266-.06.777c-.003.04-.079.988-.446 2.119-.51 1.57-1.35 2.768-2.429 3.464-.86.555-1.95.84-3.188.84-.314 0-.637-.018-.969-.055-.263-.029-.511-.067-.74-.11v7.1c5.779-.52 10.323-5.389 10.323-11.3 0-6.257-5.09-11.348-11.348-11.348z"/><path d="M14.536 16.441c-1.056-.681-2.623-.555-3.658-.334.225 1.033.756 2.514 1.812 3.195 1.112.718 2.706.536 3.657.33-.226-1.033-.757-2.51-1.812-3.19z"/><path d="M29.874 5.126A17.386 17.386 0 0017.5 0C12.826 0 8.431 1.82 5.126 5.126A17.386 17.386 0 000 17.5c0 4.674 1.82 9.069 5.126 12.374A17.386 17.386 0 0017.5 35c4.674 0 9.069-1.82 12.374-5.126A17.386 17.386 0 0035 17.5c0-4.674-1.82-9.069-5.126-12.374zM17.5 30.898c-7.388 0-13.398-6.01-13.398-13.398S10.112 4.102 17.5 4.102s13.398 6.01 13.398 13.398-6.01 13.398-13.398 13.398z"/></svg><svg viewBox="0 0 512 512" id="footer-icon-1" xmlns="http://www.w3.org/2000/svg"><path d="M470.435 45.423L16.827 221.249c-18.254 8.188-24.428 24.585-4.412 33.484l116.37 37.173 281.368-174.79c15.363-10.973 31.091-8.047 17.557 4.024L186.053 341.075l-7.591 93.076c7.031 14.371 19.905 14.438 28.117 7.295l66.858-63.589 114.505 86.187c26.595 15.826 41.066 5.613 46.788-23.394l75.105-357.47c7.798-35.705-5.5-51.437-39.4-37.757z"/></svg><svg viewBox="0 0 512 512" id="footer-icon-2" xmlns="http://www.w3.org/2000/svg"><path d="M260.4 449c-57.1-1.8-111.4-3.2-165.7-5.3-11.7-.5-23.6-2.3-35-5-21.4-5-36.2-17.9-43.8-39-6.1-17-8.3-34.5-9.9-52.3-3.5-41.8-3.5-83.6-1.8-125.4 1-23.6 1.6-47.4 7.9-70.3 3.8-13.7 8.4-27.1 19.5-37 11.7-10.5 25.4-16.8 41-17.5 42.8-2.1 85.5-4.7 128.3-5.1 57.6-.6 115.3.2 172.9 1.3 24.9.5 50 1.8 74.7 5 22.6 3 39.5 15.6 48.5 37.6 6.9 16.9 9.5 34.6 11 52.6 3.9 45.1 4 90.2 1.8 135.3-1.1 22.9-2.2 45.9-8.7 68.2-7.4 25.6-23.1 42.5-49.3 48.3-10.2 2.2-20.8 3-31.2 3.4-54.4 1.9-108.7 3.6-160.2 5.2zm-55.3-113.7c45.6-23.6 90.7-47 136.7-70.9-45.9-24-91-47.5-136.7-71.4v142.3z"/></svg><svg viewBox="0 0 512 512" id="footer-icon-3" xmlns="http://www.w3.org/2000/svg"><path d="M4 440.5c55.6 5 105.7-9 151.3-43.2-47.7-4.2-79.6-28-97.4-72.6 15.6 1.9 30.2 2.4 45.7-1.8-51.4-16-78.8-49.6-82.5-103.8 15.4 7.2 29.9 12.4 47 12.6-30.5-22.9-46.1-52.6-45.5-90 .3-17.2 4.9-33.4 14-48.7C93.1 159.1 164 195.7 251.3 201.8c-.5-3.8-.8-6.8-1.2-9.9-7.2-55.4 28.8-105.8 83.8-116.3 34.5-6.6 65 2.5 90.8 26.3 4 3.6 7.4 4.4 12.4 3.1 20.1-5.1 39.2-12.5 57.7-22.5-7.1 23.4-21.7 41-41.5 55.8 4.5-.8 9.1-1.4 13.6-2.3 4.7-1 9.4-2.1 14.1-3.4 4.5-1.2 8.9-2.6 13.3-4.1 4.5-1.5 9-3.2 14.3-4.1-2.6 3.6-5.1 7.4-7.9 10.9-11.6 14.7-25 27.6-39.7 39.1-1.5 1.2-2.8 3.8-2.7 5.6.8 35.5-4.2 70.1-15.7 103.7-22.6 66.2-62 119.8-121.1 158.1-29.2 18.9-61.1 31.3-95.2 38.5-33.8 7.1-67.8 8.4-101.9 4.4-34.2-4-66.7-14.1-97.3-29.9-8.1-4.1-15.9-8.7-23.8-13.1.3-.4.5-.8.7-1.2z"/></svg><svg viewBox="0 0 32 32" id="footer-icon-4" xmlns="http://www.w3.org/2000/svg"><path d="M4.469 8.894a1.179 1.179 0 00-.381-.988l-2.819-3.4V4h8.762l6.775 14.856L22.762 4h8.356v.506l-2.412 2.313a.704.704 0 00-.269.675v17a.704.704 0 00.269.675l2.356 2.313v.506H19.206v-.506l2.444-2.369c.238-.238.238-.313.238-.675V10.7l-6.794 17.244h-.919L6.275 10.7v11.556c-.069.487.094.975.438 1.325l3.175 3.85v.506h-9v-.5l3.175-3.856c.337-.35.494-.844.406-1.325z"/></svg></svg>